<svg xmlns="http://www.w3.org/2000/svg" viewBox="0 0 413.47 86.49"><defs><style>.cls-1{fill:#738dff;}.cls-2{fill:#9caeff;}.cls-3{fill:#fff;}.cls-4{font-size:36px;fill:#333;font-family:SimHei, SimHei;letter-spacing:0.02em;}</style></defs><title>资源 15</title><g id="图层_2" data-name="图层 2"><g id="图层_1-2" data-name="图层 1"><path class="cls-1" d="M95.74,64.53V22a.58.58,0,0,0-.34-.52L48,.05a.55.55,0,0,0-.47,0L.33,21.44A.59.59,0,0,0,0,22V64.53a.57.57,0,0,0,.33.52L47.49,86.44a.55.55,0,0,0,.47,0L95.4,65.05A.57.57,0,0,0,95.74,64.53Z"/><path class="cls-2" d="M.91,21.06a2,2,0,0,0-.89.79V51H15.21V36.66H28.89V29.57H43.07V2.05Z"/><path class="cls-2" d="M80,63.5H69.4V57.43H57.25V38.18H43.07V84.45l3.82,1.72a2,2,0,0,0,1.67,0l46-20.74a5,5,0,0,0,1.25-.53v-31H80Z"/><polygon class="cls-3" points="12.68 47.84 9.14 47.84 9.14 44.29 6.1 44.29 6.1 47.84 2.55 47.84 2.55 50.87 6.1 50.87 6.1 54.42 9.14 54.42 9.14 50.87 12.68 50.87 12.68 47.84"/><polygon class="cls-3" points="27.15 33.66 23.6 33.66 23.6 30.11 20.56 30.11 20.56 33.66 17.02 33.66 17.02 36.69 20.56 36.69 20.56 40.24 23.6 40.24 23.6 36.69 27.15 36.69 27.15 33.66"/><polygon class="cls-3" points="41.04 26.56 37.5 26.56 37.5 23.02 34.46 23.02 34.46 26.56 30.91 26.56 30.91 29.6 34.46 29.6 34.46 33.15 37.5 33.15 37.5 29.6 41.04 29.6 41.04 26.56"/><polygon class="cls-3" points="55.22 38.15 51.68 38.15 51.68 34.6 48.64 34.6 48.64 38.15 45.09 38.15 45.09 41.19 48.64 41.19 48.64 44.73 51.68 44.73 51.68 41.19 55.22 41.19 55.22 38.15"/><polygon class="cls-3" points="68.39 57.4 64.85 57.4 64.85 53.85 61.81 53.85 61.81 57.4 58.26 57.4 58.26 60.43 61.81 60.43 61.81 63.98 64.85 63.98 64.85 60.43 68.39 60.43 68.39 57.4"/><polygon class="cls-3" points="79.82 63.47 76.27 63.47 76.27 59.93 73.23 59.93 73.23 63.47 69.69 63.47 69.69 66.51 73.23 66.51 73.23 70.06 76.27 70.06 76.27 66.51 79.82 66.51 79.82 63.47"/><polygon class="cls-3" points="95.01 33.81 91.47 33.81 91.47 31.79 89.44 31.79 89.44 28.24 86.4 28.24 86.4 31.79 84.38 31.79 84.38 33.81 80.83 33.81 80.83 36.85 84.38 36.85 84.38 38.88 86.4 38.88 86.4 42.42 89.44 42.42 89.44 38.88 91.47 38.88 91.47 36.85 95.01 36.85 95.01 33.81"/><text class="cls-4" transform="translate(119.13 55.14)">天枢可视分析系统</text></g></g></svg>