<?xml version="1.0" encoding="utf-8"?>
<!-- Generator: Adobe Illustrator 23.0.0, SVG Export Plug-In . SVG Version: 6.00 Build 0)  -->
<svg version="1.1" id="图层_1" xmlns="http://www.w3.org/2000/svg" xmlns:xlink="http://www.w3.org/1999/xlink" x="0px" y="0px"
	 viewBox="0 0 612 141" style="enable-background:new 0 0 612 141;" xml:space="preserve">
<style type="text/css">
	.st0{fill:#231815;fill-opacity:0;}
	.st1{fill-rule:evenodd;clip-rule:evenodd;fill:#231815;}
	.st2{fill:#231815;}
</style>
<g transform="translate(67.90692901611328,94.72306442260742)">
	<g transform="translate(0,0)">
		<rect x="54.3" y="-80.2" class="st0" width="108" height="109"/>
		<path class="st1" d="M141.6-68.5C118-87.2,83.7-83.1,65-59.5c-2.3,3-4.3,6.1-6,9.4c0.2-0.2,0.4-0.5,0.6-0.7
			c16.7-21.1,47.2-24.7,68.3-8c21.1,16.6,24.7,47.3,8,68.3C127,21,113.3,27.8,98.8,28c29.7,5,57.8-14.9,62.8-44.6
			C164.9-36.3,157.3-56.2,141.6-68.5z"/>
		<path class="st1" d="M108.5-62.8c-23.3-5.9-46.9,8.1-52.8,31.4s8.1,46.9,31.4,52.8c16.6,4.2,34.2-1.7,44.8-15.2
			c2-2.6,3.8-5.4,5.2-8.4c-0.6,0.9-1.3,1.9-2,2.8c-0.1,0.1-0.2,0.3-0.4,0.4c-0.2,0.3-0.5,0.6-0.7,0.9C120.3,19.4,95,22.4,77.5,8.7
			S57-30.4,70.8-47.9C79.7-59.3,94.2-65,108.5-62.8L108.5-62.8z"/>
		<path class="st1" d="M121.6-24.8c-6.2,0.1-11.3-4.9-11.3-11.1c-0.1-4.9,3.1-9.3,7.8-10.8c-12.8-8.2-29.8-4.5-38,8.3
			s-4.5,29.8,8.3,38s29.8,4.5,38-8.3c3.8-6,5.2-13.2,3.8-20.2C128.1-26.3,124.9-24.8,121.6-24.8z M120.4-10.7
			c-2.9,0-5.3-2.4-5.2-5.3c0-2.9,2.4-5.3,5.3-5.2c2.9,0,5.2,2.4,5.2,5.3C125.7-13.1,123.4-10.7,120.4-10.7
			C120.5-10.7,120.4-10.7,120.4-10.7z"/>
	</g>
	<g transform="translate(67.02613830566406,14.506935119628906)">
		<g>
			<g>
				<path class="st2" d="M128.4-23.3h27.9c0,0,0,0,0,0.1l0,0v11.3c0,0,0,0.1,0,0.1l0,0H108l-0.1-0.1l0,0l28-45.3h-28
					c0,0-0.1,0-0.1,0l0,0v-11.3c0-0.1,0-0.1,0.1-0.1l0,0h48.4l0,0v0.1L128.4-23.3z M212.2-68.5v32.5c0,3.3-0.6,6.4-1.9,9.4
					c-1.3,2.9-3,5.5-5.2,7.7c-2.2,2.2-4.8,4-7.7,5.2c-2.9,1.3-6.1,1.9-9.4,1.9l0,0c-3.3,0-6.5-0.6-9.4-1.9c-3-1.3-5.5-3-7.7-5.2
					c-2.2-2.2-3.9-4.8-5.2-7.7s-1.9-6.1-1.9-9.4l0,0c0-0.1,0-0.1,0.1-0.1l0,0h11.3c0,0,0,0,0,0.1l0,0c0,1.7,0.3,3.4,1,4.9
					c0.7,1.6,1.6,2.9,2.8,4.1s2.5,2.1,4.1,2.7c1.6,0.6,3.2,1,4.9,1l0,0c1.8,0,3.4-0.3,5-1c1.5-0.6,2.9-1.6,4.1-2.7
					c1.2-1.2,2.1-2.5,2.8-4.1c0.7-1.6,1-3.2,1-4.9l0,0v-32.5c0-0.1,0-0.1,0.1-0.1l0,0L212.2-68.5C212.2-68.6,212.2-68.6,212.2-68.5
					L212.2-68.5z M253.8-11.8h-11.9l-0.1-0.1l-18.2-56.6v-0.1h0.1h11.9v0.1l12.2,38l12.2-38l0.1-0.1h11.9l0,0v0.1L253.8-11.8
					L253.8-11.8z M294.9-11.8h-11.3c-0.1,0-0.1,0-0.1-0.1l0,0v-56.6c0-0.1,0-0.1,0.1-0.1l0,0h11.3c0,0,0,0,0,0.1l0,0V-11.8
					C294.9-11.9,294.9-11.8,294.9-11.8L294.9-11.8z M323.4-23.3h14.3c1.6,0,2.9-0.5,4-1.6c1.1-1.1,1.6-2.4,1.6-4l0,0
					c0-1.6-0.5-2.9-1.6-4c-1.1-1.1-2.4-1.6-4-1.6l0,0h-14.3c-2.4,0-4.6-0.5-6.7-1.3c-2.1-0.9-3.9-2.1-5.4-3.6
					c-1.5-1.5-2.7-3.4-3.6-5.4c-0.9-2.1-1.4-4.3-1.4-6.7l0,0c0-2.3,0.5-4.5,1.4-6.6c0.9-2.1,2.1-3.9,3.6-5.4
					c1.5-1.5,3.3-2.8,5.4-3.7c2.1-0.9,4.3-1.3,6.7-1.3l0,0h14.3c2.4,0,4.6,0.4,6.6,1.3s3.9,2.1,5.4,3.7c1.5,1.5,2.8,3.3,3.7,5.4
					c0.9,2.1,1.4,4.3,1.4,6.6l0,0c0,0.1,0,0.1-0.1,0.1l0,0h-11.3c0,0-0.1,0-0.1-0.1l0,0c0-1.5-0.5-2.8-1.6-3.9
					c-1.1-1.1-2.4-1.7-4-1.7l0,0h-14.3c-1.6,0-2.9,0.6-4,1.7c-1.1,1.1-1.7,2.4-1.7,3.9l0,0c0,1.6,0.6,2.9,1.7,4
					c1.1,1.1,2.4,1.7,4,1.7l0,0h14.3c2.4,0,4.6,0.4,6.6,1.3c2.1,0.9,3.9,2.1,5.4,3.7c1.5,1.5,2.8,3.3,3.7,5.4
					c0.9,2.1,1.4,4.3,1.4,6.6l0,0c0,2.4-0.5,4.6-1.4,6.6c-0.9,2.1-2.1,3.9-3.7,5.4c-1.5,1.6-3.3,2.8-5.4,3.7
					c-2.1,0.9-4.3,1.3-6.6,1.3l0,0h-14.3c-2.4,0-4.6-0.4-6.7-1.3c-2.1-0.9-3.9-2.1-5.4-3.7c-1.5-1.6-2.7-3.4-3.6-5.4
					c-0.9-2.1-1.4-4.3-1.4-6.6l0,0c0,0,0,0,0.1,0l0,0h11.3c0,0,0,0,0,0l0,0c0,1.6,0.6,2.9,1.7,4C320.5-23.9,321.8-23.3,323.4-23.3
					L323.4-23.3z"/>
			</g>
		</g>
	</g>
</g>
</svg>
