<?xml version="1.0" encoding="utf-8"?>
<!-- Generator: Adobe Illustrator 23.0.0, SVG Export Plug-In . SVG Version: 6.00 Build 0)  -->
<svg version="1.1" id="图层_1" xmlns="http://www.w3.org/2000/svg" xmlns:xlink="http://www.w3.org/1999/xlink" x="0px" y="0px"
	 viewBox="0 0 276 65.9" style="enable-background:new 0 0 276 65.9;" xml:space="preserve">
<style type="text/css">
	.st0{fill:#231815;fill-opacity:0;}
	.st1{fill-rule:evenodd;clip-rule:evenodd;fill:#231815;}
	.st2{fill:#231815;}
</style>
<g transform="translate(56.45692443847656,94.72306442260742)">
	<g transform="translate(0,0)">
		<rect x="-12.6" y="-87.5" class="st0" width="50.8" height="51.3"/>
		<path class="st1" d="M28.4-82c-11.1-8.8-27.2-6.9-36,4.3c-1.1,1.4-2,2.9-2.8,4.4c0.1-0.1,0.2-0.2,0.3-0.3
			c7.8-9.9,22.2-11.6,32.2-3.8c9.9,7.8,11.6,22.2,3.8,32.2c-4.2,5.4-10.7,8.6-17.5,8.7c14,2.4,27.2-7,29.6-21
			C39.4-66.8,35.8-76.2,28.4-82z"/>
		<path class="st1" d="M12.9-79.3C1.9-82.1-9.2-75.4-12-64.5s3.8,22.1,14.8,24.9c7.8,2,16.1-0.8,21.1-7.1c1-1.2,1.8-2.5,2.5-3.9
			c-0.3,0.4-0.6,0.9-0.9,1.3c-0.1,0.1-0.1,0.1-0.2,0.2c-0.1,0.1-0.2,0.3-0.3,0.4c-6.5,8.2-18.4,9.6-26.6,3.2S-11.4-64-4.9-72.3
			C-0.7-77.6,6.1-80.3,12.9-79.3L12.9-79.3z"/>
		<path class="st1" d="M19-61.4c-2.9,0-5.3-2.3-5.3-5.2c0-2.3,1.5-4.4,3.7-5.1c-6-3.9-14-2.1-17.9,3.9s-2.1,14,3.9,17.9
			s14,2.1,17.9-3.9c1.8-2.8,2.5-6.2,1.8-9.5C22.1-62.1,20.6-61.4,19-61.4z M18.5-54.8c-1.4,0-2.5-1.1-2.5-2.5c0-1.4,1.1-2.5,2.5-2.5
			c1.4,0,2.5,1.1,2.5,2.5C21-55.9,19.9-54.8,18.5-54.8C18.5-54.8,18.5-54.8,18.5-54.8z"/>
	</g>
	<g transform="translate(67.02613830566406,14.506935119628906)">
		<g>
			<g>
				<path class="st2" d="M-14.2-84.3h-8.7c0,0,0,0,0,0l0,0v-5.3c0,0,0,0,0,0l0,0h22.8c0,0,0,0,0,0l0,0v5.3l0,0l0,0h-8.7V-63
					c0,0,0,0,0,0l0,0h-5.3c0,0,0,0,0,0l0,0V-84.3z M12.4-68.4h6.8c0.7,0,1.4-0.3,1.9-0.8c0.5-0.5,0.8-1.1,0.8-1.9l0,0
					c0-0.7-0.3-1.4-0.8-1.9c-0.5-0.5-1.1-0.8-1.9-0.8l0,0h-6.8c-1.1,0-2.2-0.2-3.1-0.6c-1-0.4-1.8-1-2.5-1.7
					c-0.7-0.7-1.3-1.6-1.7-2.6c-0.4-1-0.6-2-0.6-3.1l0,0c0-1.1,0.2-2.1,0.6-3.1c0.4-1,1-1.8,1.7-2.5c0.7-0.7,1.6-1.3,2.5-1.7
					c1-0.4,2-0.6,3.1-0.6l0,0h6.8c1.1,0,2.2,0.2,3.1,0.6c1,0.4,1.8,1,2.5,1.7c0.7,0.7,1.3,1.6,1.7,2.5c0.4,1,0.6,2,0.6,3.1l0,0
					c0,0,0,0,0,0l0,0h-5.3c0,0,0,0,0,0l0,0c0-0.7-0.3-1.3-0.8-1.8c-0.5-0.5-1.1-0.8-1.9-0.8l0,0h-6.8c-0.7,0-1.4,0.3-1.9,0.8
					C10-83,9.7-82.4,9.7-81.7l0,0c0,0.7,0.3,1.4,0.8,1.9c0.5,0.5,1.1,0.8,1.9,0.8l0,0h6.8c1.1,0,2.2,0.2,3.1,0.6
					c1,0.4,1.8,1,2.5,1.7c0.7,0.7,1.3,1.6,1.7,2.5c0.4,1,0.6,2,0.6,3.1l0,0c0,1.1-0.2,2.2-0.6,3.1c-0.4,1-1,1.8-1.7,2.5
					c-0.7,0.7-1.6,1.3-2.5,1.7c-1,0.4-2,0.6-3.1,0.6l0,0h-6.8c-1.1,0-2.2-0.2-3.1-0.6c-1-0.4-1.8-1-2.5-1.7
					c-0.7-0.7-1.3-1.6-1.7-2.5c-0.4-1-0.6-2-0.6-3.1l0,0c0,0,0,0,0,0l0,0h5.3l0,0l0,0c0,0.7,0.3,1.4,0.8,1.9
					C11-68.6,11.6-68.4,12.4-68.4L12.4-68.4z M31-79h16c0,0,0,0,0,0l0,0v5.3c0,0,0,0,0,0l0,0H31c0,0,0,0,0,0l0,0L31-79
					C31-79,31-79,31-79L31-79z M65.2-63h-5.6l0,0l-8.6-26.6v0h0h5.6v0l5.8,17.9l5.8-17.9l0,0h5.6l0,0v0L65.2-63L65.2-63z M84.5-63
					h-5.3c0,0,0,0,0,0l0,0v-26.6c0,0,0,0,0,0l0,0h5.3c0,0,0,0,0,0l0,0V-63C84.5-63,84.5-63,84.5-63L84.5-63z M97.9-68.4h6.8
					c0.7,0,1.4-0.3,1.9-0.8c0.5-0.5,0.8-1.1,0.8-1.9l0,0c0-0.7-0.3-1.4-0.8-1.9c-0.5-0.5-1.1-0.8-1.9-0.8l0,0h-6.8
					c-1.1,0-2.2-0.2-3.1-0.6c-1-0.4-1.8-1-2.5-1.7c-0.7-0.7-1.3-1.6-1.7-2.6c-0.4-1-0.6-2-0.6-3.1l0,0c0-1.1,0.2-2.1,0.6-3.1
					c0.4-1,1-1.8,1.7-2.5c0.7-0.7,1.6-1.3,2.5-1.7c1-0.4,2-0.6,3.1-0.6l0,0h6.8c1.1,0,2.2,0.2,3.1,0.6c1,0.4,1.8,1,2.5,1.7
					c0.7,0.7,1.3,1.6,1.7,2.5c0.4,1,0.6,2,0.6,3.1l0,0c0,0,0,0,0,0l0,0h-5.3c0,0,0,0,0,0l0,0c0-0.7-0.3-1.3-0.8-1.8
					c-0.5-0.5-1.1-0.8-1.9-0.8l0,0h-6.8c-0.7,0-1.4,0.3-1.9,0.8c-0.5,0.5-0.8,1.1-0.8,1.8l0,0c0,0.7,0.3,1.4,0.8,1.9
					c0.5,0.5,1.1,0.8,1.9,0.8l0,0h6.8c1.1,0,2.2,0.2,3.1,0.6c1,0.4,1.8,1,2.5,1.7c0.7,0.7,1.3,1.6,1.7,2.5c0.4,1,0.6,2,0.6,3.1l0,0
					c0,1.1-0.2,2.2-0.6,3.1c-0.4,1-1,1.8-1.7,2.5c-0.7,0.7-1.6,1.3-2.5,1.7c-1,0.4-2,0.6-3.1,0.6l0,0h-6.8c-1.1,0-2.2-0.2-3.1-0.6
					c-1-0.4-1.8-1-2.5-1.7c-0.7-0.7-1.3-1.6-1.7-2.5c-0.4-1-0.6-2-0.6-3.1l0,0c0,0,0,0,0,0l0,0h5.3l0,0l0,0c0,0.7,0.3,1.4,0.8,1.9
					C96.5-68.6,97.2-68.4,97.9-68.4L97.9-68.4z"/>
			</g>
			<g transform="translate(163.0600128173828,0)">
				<path class="st2" d="M-47.8-63"/>
			</g>
		</g>
	</g>
</g>
</svg>
